<?xml version="1.0" encoding="utf-8"?>
<!-- Generator: Adobe Illustrator 25.3.1, SVG Export Plug-In . SVG Version: 6.00 Build 0)  -->
<svg version="1.1" id="Lag_1" xmlns="http://www.w3.org/2000/svg" xmlns:xlink="http://www.w3.org/1999/xlink" x="0px" y="0px"
	 viewBox="0 0 640 512" style="enable-background:new 0 0 640 512;" xml:space="preserve">
<style type="text/css">
	.st0{fill:#FFFFFF;}
</style>
<path class="st0" d="M96,224v32v160c0,17.7,14.3,32,32,32h32c17.7,0,32-14.3,32-32v-88.2c9.9,6.6,20.6,12,32,16.1V368
	c0,8.8,7.2,16,16,16s16-7.2,16-16v-16.9c5.3,0.6,10.6,0.9,16,0.9s10.7-0.3,16-0.9V368c0,8.8,7.2,16,16,16s16-7.2,16-16v-24.2
	c11.4-4,22.1-9.4,32-16.1V416c0,17.7,14.3,32,32,32h32c17.7,0,32-14.3,32-32V256l32,32v49.5c0,9.5,2.8,18.7,8.1,26.6L530,427
	c8.8,13.1,23.5,21,39.3,21c22.5,0,41.9-15.9,46.3-38l20.3-101.6c2.6-13-0.3-26.5-8-37.3l-3.9-5.5V184c0-13.3-10.7-24-24-24
	s-24,10.7-24,24v14.4l-52.9-74.1C496,86.5,452.4,64,405.9,64H272h-16h-64h-48C77.7,64,24,117.7,24,184v54C9.4,249.8,0,267.8,0,288
	v17.6c0,8,6.4,14.4,14.4,14.4c31.8,0,57.6-25.8,57.6-57.6V256v-32v-40c0-24.3,12.1-45.8,30.5-58.9C98.3,135.9,96,147.7,96,160V224z
	 M560,336c0-8.8,7.2-16,16-16s16,7.2,16,16s-7.2,16-16,16S560,344.8,560,336z M166.6,166.6c-4.2-4.2-6.6-10-6.6-16
	c0-12.5,10.1-22.6,22.6-22.6h178.8c12.5,0,22.6,10.1,22.6,22.6c0,6-2.4,11.8-6.6,16L354,190c-21.8,21.8-51.3,34-82,34
	s-60.2-12.2-81.9-33.9l-23.4-23.4L166.6,166.6z"/>
</svg>
