<svg xmlns="http://www.w3.org/2000/svg" xmlns:xlink="http://www.w3.org/1999/xlink" id="Lag_1" data-name="Lag 1" viewBox="0 0 1830 320"><defs><style>.cls-1{fill:url(#linear-gradient);}.cls-2{fill:url(#linear-gradient-2);}.cls-3{fill:#fff;}</style><linearGradient id="linear-gradient" y1="270.05" x2="1830" y2="270.05" gradientUnits="userSpaceOnUse"><stop offset="0" stop-color="#004924"></stop><stop offset="0.56" stop-color="#448a51"></stop><stop offset="1" stop-color="#448a51"></stop></linearGradient><linearGradient id="linear-gradient-2" y1="160" x2="1202.72" y2="160" gradientUnits="userSpaceOnUse"><stop offset="0" stop-color="#d25645"></stop><stop offset="1" stop-color="#db763e"></stop></linearGradient></defs><path class="cls-1" d="M1813.47,238.38H17.57S0,238.38,0,255v30.15s0,16.6,17.57,16.6h1795.9s16.53,0,16.53-16.6V255S1830,238.38,1813.47,238.38Z" transform="translate(0 0)"></path><path class="cls-2" d="M1173.59,64.23c-23.77-18.76-51-1.7-56,7.14s-18.69-.72-18.69-.72C1080.17-6.52,925.6,23.29,925.6,23.29c-15.29-30.71-49.26-29-83.23-6.82-26.78,17.47-11.35,39.18-3.61,47.6H16.53S0,64.07,0,80.67v132.8s0,16.6,16.53,16.6H928a19,19,0,0,0,2-.17c7.42,17.15,6.16,31.83.69,66.35-.34,28.38,67.7,25.58,96.81,20.47s17-22.18,13.59-44.36,6.8-51.18,20.39-87,37.36-63.13,37.36-63.13,1.71,22.18,35.68,23.89,66.24-32.42,67.94-46.06S1197.38,83,1173.59,64.23Z" transform="translate(0 0)"></path><path class="cls-3" d="M992.45,267.18S964.4,264,955.31,274.1c-4.8,5.3-9.74,18.38-1.1,18.38s13.55-6.68,21.87-5.06c5.86,1.15,10.07,5.69,8.19,8.22s-9.33,6.95-2.52,8.22c7,1.3,15.64,2.53,13.22-4.43s4.41-10.75,10.07-10.75,10.08,8.22,13.23,5.06,12.59-19.64-25.82-26.56" transform="translate(0 0)"></path><path class="cls-3" d="M1014.38,31.4S963,23,962,51.86c-1.34,38.64,23.51,54.49,18.7,79.63s-34.21,72.53-20.16,88.6c10.3,11.77,67.58,14.88,61.46-18.91s-9.17-64.53,12.24-87.58c15.83-17,41.62-51.17,18.39-68.75-8.2-6.21-15.55-11-38.29-13.45" transform="translate(0 0)"></path><path class="cls-3" d="M65.5,277.05c-1.31,6.75,4.62,8.49,10.29,8.49,5.93,0,10.6-2.27,11.44-6.38.74-3.43-1.62-4.85-5.77-5.59l-8.19-1.42c-4.31-.74-10.61-2.54-9.08-9.86,1.47-6.86,7.87-11.44,17.48-11.44,7.5,0,14.85,2.74,13.44,11.81H89.54c.16-3-.68-7-9.66-7-4.09,0-9.08,1.74-10,6.17-.48,2.32.63,4.16,5.09,4.95l8.87,1.58c2.83.53,10.87,2,9.24,9.65-2,9.6-11.18,12.34-18.74,12.34-8.45,0-16.59-2.95-14.38-13.34Z" transform="translate(0 0)"></path><path class="cls-3" d="M150.94,256.64H136.77l1-4.84h33.92l-1,4.84H156.5l-6.93,32.8H144Z" transform="translate(0 0)"></path><path class="cls-3" d="M231.34,278.48H213l-7.09,11h-6l24.93-37.64h6.35l9,37.64h-6.35ZM226.67,257l-10.55,16.66h14.22Z" transform="translate(0 0)"></path><path class="cls-3" d="M290.48,251.8H296l-6.93,32.79H311.9l-1,4.85H282.5Z" transform="translate(0 0)"></path><path class="cls-3" d="M361.64,251.8h19c11.24,0,14.81,7.38,12.5,18.29-2.21,10.49-8.66,19.35-20.16,19.35H353.66Zm12.13,32.79c9.13,0,12.39-7.7,13.8-14.4s.69-13.55-9-13.55H366.16l-5.88,27.95Z" transform="translate(0 0)"></path><path class="cls-3" d="M450.86,256.64H436.69l1-4.84h33.92l-1,4.84H456.42l-6.93,32.8h-5.56Z" transform="translate(0 0)"></path><path class="cls-3" d="M514,251.8h30.13l-1,4.84H518.5l-2.31,10.92H540l-1,4.85H515.2l-2.58,12.18h25.1l-1.05,4.85H506Z" transform="translate(0 0)"></path><path class="cls-3" d="M597.7,271.09l-8.09,6.07L587,289.44h-5.57l8-37.64H595l-4.05,18.92,25-18.92h7.88l-21.11,15.6,14.12,22h-7.66Z" transform="translate(0 0)"></path><path class="cls-3" d="M671.59,259.49h-.11l-6.35,29.95h-5.57l8-37.64H674l17.74,29.94h.11l6.35-29.94h5.56l-8,37.64h-6.45Z" transform="translate(0 0)"></path><path class="cls-3" d="M750.83,251.8h5.56l-8,37.64h-5.56Z" transform="translate(0 0)"></path><path class="cls-3" d="M811.71,271.09l-8.09,6.07L801,289.44h-5.57l8-37.64H809l-4.05,18.92,25-18.92h7.88l-21.11,15.6,14.12,22h-7.66Z" transform="translate(0 0)"></path><path class="cls-3" d="M1104.2,272.67h15.22l-.84,4.22h-15.22Z" transform="translate(0 0)"></path><path class="cls-3" d="M1163.5,289.44h-4.19l.94-3.9h-.11c-2.67,3.53-5.35,4.53-9,4.53-6.93,0-10.66-4.53-10.66-11.17,0-8.28,5.56-17.35,15.07-17.35,3.31,0,7.4,1.16,8.45,4.8h.1L1167,251.8h4.41ZM1152,286.12c6.77,0,10.6-7.86,10.6-13.55,0-4.06-2.42-7.06-6.83-7.06-7.08,0-10.76,7.37-10.76,13.39C1145,283.32,1147.07,286.12,1152,286.12Z" transform="translate(0 0)"></path><path class="cls-3" d="M1177.45,262.18h4.47l-5.67,27.26h-4.47Zm5.52-4.9h-4.52l1.16-5.48h4.51Z" transform="translate(0 0)"></path><path class="cls-3" d="M1190.47,262.18h4.31l-.84,4.11h.1a12,12,0,0,1,9.66-4.74c5.09,0,7.56,2.22,7.56,7a28.34,28.34,0,0,1-.79,5.33l-3.31,15.55h-4.46l3.47-15.92a30.33,30.33,0,0,0,.63-4.22c0-2.59-2.1-3.79-4.73-3.79a9.74,9.74,0,0,0-6.72,3.16,11.3,11.3,0,0,0-3,5.69l-3.15,15.08h-4.46Z" transform="translate(0 0)"></path><path class="cls-3" d="M1236.76,262.18h4.2l-.94,3.91h.1c2.68-3.54,5.35-4.54,9-4.54,6.93,0,10.66,4.54,10.66,11.18,0,8.27-5.56,17.34-15.07,17.34-3.3,0-7.39-1.16-8.45-4.8h-.1l-2.89,14.61h-4.41Zm11.55,3.33c-6.77,0-10.61,7.85-10.61,13.54,0,4.06,2.42,7.07,6.83,7.07,7.09,0,10.76-7.38,10.76-13.39C1255.29,268.3,1253.19,265.51,1248.31,265.51Z" transform="translate(0 0)"></path><path class="cls-3" d="M1266.62,270.41c.89-6.07,6-8.86,11.76-8.86,5.25,0,9.92,1.42,9.92,7a26.68,26.68,0,0,1-.84,4.95l-1.74,7.44a22.11,22.11,0,0,0-.73,3.9c0,1.27.58,1.69,1.31,1.69a4.66,4.66,0,0,0,1.42-.37l-.68,3.32a6.9,6.9,0,0,1-2.73.63c-2.47,0-3.78-1.47-3.52-3.85l-.1-.1c-1.9,2.53-4.52,3.95-9.09,3.95s-8.29-2.11-8.29-7.69c0-7.91,7.72-8.44,13.7-9,4.72-.42,6.82-.68,6.82-4.32,0-3-3.09-3.58-5.45-3.58-3.42,0-6.78,1.36-7.3,4.9Zm6,15.71c3.47,0,6-1.16,7.62-3.59,1.46-2,1.73-4.48,2.36-7h-.11c-1.94,1.16-5.46,1.42-8.71,1.84s-6,1.48-6,5C1267.77,284.85,1270.13,286.12,1272.65,286.12Z" transform="translate(0 0)"></path><path class="cls-3" d="M1297.79,262.18h4.2l-1.31,5.85h.1c2.1-3.74,5.31-6.48,9.87-6.48a7.59,7.59,0,0,1,1.58,0l-1.06,4.8a9.5,9.5,0,0,0-1.31-.06,8.82,8.82,0,0,0-2.67.27,9.89,9.89,0,0,0-5.78,4.43,17.9,17.9,0,0,0-2.25,6.37l-2.58,12.08h-4.46Z" transform="translate(0 0)"></path><path class="cls-3" d="M1322.77,262.18h5.41l-.84,3.95h-5.41l-3.36,16c0,.64-.16,1.16-.16,1.8,0,1.42,1.32,1.84,2.68,1.84a8.71,8.71,0,0,0,2.58-.47l-.79,4.11a16,16,0,0,1-3.15.31c-3.31,0-6.09-.94-6.09-4.42a11.38,11.38,0,0,1,.26-2.27l3.57-16.93h-4.57l.84-3.95h4.57l1.68-8.06h4.46Z" transform="translate(0 0)"></path><path class="cls-3" d="M1334.47,262.18h4.31l-.84,4.11h.1a12,12,0,0,1,9.66-4.74c5.1,0,7.56,2.22,7.56,7a29,29,0,0,1-.78,5.33l-3.31,15.55h-4.47l3.47-15.92a30.33,30.33,0,0,0,.63-4.22c0-2.59-2.1-3.79-4.72-3.79a9.72,9.72,0,0,0-6.72,3.16,11.23,11.23,0,0,0-3,5.69l-3.15,15.08h-4.46Z" transform="translate(0 0)"></path><path class="cls-3" d="M1364.6,277.16a17.05,17.05,0,0,0-.16,2.37c0,4.21,3.41,6.59,7,6.59,3.89,0,6.57-1.85,7.83-5.22h4.46c-1.42,6-6.36,9.17-12.29,9.17-9,0-11.49-6.22-11.49-11,0-10.43,6.5-17.55,14-17.55,8,0,11.5,4.38,11.5,12.07a17.22,17.22,0,0,1-.43,3.54Zm16.38-4c.31-3.85-1.42-7.69-6.36-7.69-5.25,0-8.08,3.47-9.39,7.69Z" transform="translate(0 0)"></path><path class="cls-3" d="M1394.35,262.18h4.2l-1.31,5.85h.1c2.1-3.74,5.31-6.48,9.87-6.48a7.59,7.59,0,0,1,1.58,0l-1,4.8a9.65,9.65,0,0,0-1.31-.06,8.86,8.86,0,0,0-2.68.27A9.89,9.89,0,0,0,1398,271a18.3,18.3,0,0,0-2.25,6.37l-2.58,12.08h-4.46Z" transform="translate(0 0)"></path><path class="cls-3" d="M1429,262.18h4.46l-5.66,27.26h-4.47Zm5.52-4.9H1430l1.16-5.48h4.51Z" transform="translate(0 0)"></path><path class="cls-3" d="M1460.16,251.8h4.41l-4.67,22.14.11.1,13.64-11.86h5.83l-11.81,10.07,6.72,17.19h-5l-5.3-14.5-5.35,4.8-2,9.7h-4.47Z" transform="translate(0 0)"></path><path class="cls-3" d="M1489.92,289.44h-4.78l-3.89-27.26H1486l2.31,22.67h.1l11.76-22.67H1505Z" transform="translate(0 0)"></path><path class="cls-3" d="M1509,270.35c1-6.43,6.14-8.8,12.12-8.8,3.47,0,7,.9,8.66,4.27a10.73,10.73,0,0,1,8.66-4.27c6.88,0,10.45,3.9,10.45,10.7a20.27,20.27,0,0,1-.73,4.91h-19.69a23,23,0,0,0-.26,2.74c0,3.27,2,6.22,6.51,6.22a8.13,8.13,0,0,0,8-5.22h4.57a13.89,13.89,0,0,1-1.47,3.06,12.68,12.68,0,0,1-11.5,6.11c-4.25,0-8-1.26-9.55-5.9a11.74,11.74,0,0,1-10.66,5.9c-4.51,0-8.77-1.68-8.77-7.59s5.15-7.75,10.35-8.33,10.29-.53,10.29-5c0-3.11-3.31-3.63-5.94-3.63-3.36,0-6,1.68-6.72,4.84Zm5.88,15.77a9,9,0,0,0,6.56-2.38c1.89-1.89,2.73-5.69,3.2-8.32-2.62,1.31-6.35,1.36-9.4,2s-5.41,1.68-5.41,5.06C1509.8,285.12,1512.27,286.12,1514.85,286.12Zm29.55-12.92c.58-4-1.21-7.69-6.19-7.69s-8,3.68-9,7.69Z" transform="translate(0 0)"></path><path class="cls-3" d="M1576.67,285.49a51.18,51.18,0,0,1-2.1,7.43c-2.31,5.43-6.57,7.59-12.34,7.59-5.51,0-10.65-2.37-10.81-8.44h4.46c.26,3.64,3.41,4.49,6.82,4.49,6.94,0,8.3-5.54,9.72-11l-.11-.1a9.7,9.7,0,0,1-8.45,4.16c-6.72,0-10.19-4.8-10.19-11.28,0-8.07,5.31-16.82,14.13-16.82,3.93,0,7.82,2.11,8.6,5.54v.1h.11l.84-5h4.2Zm-11.87.21c6.72,0,9.88-7.6,9.88-13.08,0-4.27-2.26-7.11-6.94-7.11-6.24,0-9.6,7.85-9.6,12.86C1558.14,282.27,1560.34,285.7,1564.8,285.7Z" transform="translate(0 0)"></path><path class="cls-3" d="M1602.65,270.19c.2-3.1-2.52-4.68-5.62-4.68-2.73,0-5.78.73-5.78,3.47,0,2.53,3.58,3.54,7.14,5s7.19,3.37,7.19,7.65c0,6.06-5.82,8.43-11.07,8.43-6.2,0-11-2.26-11-9.23H1588c-.21,4.07,3.2,5.28,6.93,5.28,2.88,0,6.19-1.06,6.19-4.17,0-2.63-3.57-3.69-7.14-5.17s-7.19-3.26-7.19-7.37c0-5.07,5-7.86,10.08-7.86s10.24,2.27,10.24,8.64Z" transform="translate(0 0)"></path><path class="cls-3" d="M1622.16,262.18h5.41l-.84,3.95h-5.41l-3.36,16c0,.64-.15,1.16-.15,1.8,0,1.42,1.31,1.84,2.67,1.84a8.65,8.65,0,0,0,2.58-.47l-.79,4.11a16,16,0,0,1-3.15.31c-3.31,0-6.09-.94-6.09-4.42a11.38,11.38,0,0,1,.26-2.27l3.57-16.93h-4.57l.84-3.95h4.57l1.68-8.06h4.46Z" transform="translate(0 0)"></path><path class="cls-3" d="M1631.19,270.41c.89-6.07,6-8.86,11.76-8.86,5.25,0,9.92,1.42,9.92,7a26.68,26.68,0,0,1-.84,4.95l-1.73,7.44a22.1,22.1,0,0,0-.74,3.9c0,1.27.58,1.69,1.31,1.69a4.66,4.66,0,0,0,1.42-.37l-.68,3.32a6.86,6.86,0,0,1-2.73.63c-2.47,0-3.78-1.47-3.52-3.85l-.1-.1c-1.89,2.53-4.52,3.95-9.09,3.95s-8.29-2.11-8.29-7.69c0-7.91,7.72-8.44,13.7-9,4.73-.42,6.83-.68,6.83-4.32,0-3-3.1-3.58-5.46-3.58-3.42,0-6.78,1.36-7.3,4.9Zm6,15.71c3.47,0,6-1.16,7.62-3.59,1.47-2,1.73-4.48,2.36-7h-.1c-1.95,1.16-5.47,1.42-8.72,1.84s-6,1.48-6,5C1632.34,284.85,1634.71,286.12,1637.22,286.12Z" transform="translate(0 0)"></path><path class="cls-3" d="M1664.56,251.8H1669l-7.87,37.64h-4.46Z" transform="translate(0 0)"></path><path class="cls-3" d="M1693.8,289.44h-4.2l.94-3.9h-.1c-2.68,3.53-5.35,4.53-9,4.53-6.93,0-10.66-4.53-10.66-11.17,0-8.28,5.57-17.35,15.07-17.35,3.31,0,7.4,1.16,8.45,4.8h.11l2.89-14.55h4.41Zm-11.55-3.32c6.77,0,10.6-7.86,10.6-13.55,0-4.06-2.41-7.06-6.82-7.06-7.09,0-10.76,7.37-10.76,13.39C1675.27,283.32,1677.37,286.12,1682.25,286.12Z" transform="translate(0 0)"></path><path class="cls-3" d="M1707.49,277.16a18.74,18.74,0,0,0-.16,2.37c0,4.21,3.42,6.59,7,6.59,3.89,0,6.56-1.85,7.82-5.22h4.46c-1.41,6-6.35,9.17-12.28,9.17-9,0-11.5-6.22-11.5-11,0-10.43,6.51-17.55,14-17.55,8,0,11.49,4.38,11.49,12.07a17.34,17.34,0,0,1-.42,3.54Zm16.38-4c.32-3.85-1.42-7.69-6.35-7.69-5.25,0-8.09,3.47-9.4,7.69Z" transform="translate(0 0)"></path><path class="cls-3" d="M1737.3,262.18h4.31l-.85,4.11h.11a12,12,0,0,1,9.66-4.74c5.09,0,7.56,2.22,7.56,7a29.2,29.2,0,0,1-.79,5.33L1754,289.44h-4.46l3.47-15.92a30.33,30.33,0,0,0,.63-4.22c0-2.59-2.1-3.79-4.73-3.79a9.72,9.72,0,0,0-6.72,3.16,11.3,11.3,0,0,0-3,5.69L1736,289.44h-4.46Z" transform="translate(0 0)"></path><path class="cls-3" d="M56.62,199.71,113.81,97.23h63.63l-28.79,51.61,88.52-51.61h38.5L193.39,141.3l23.28,38.25q3.33,5.5,11.56,5.5h13.35l-8.15,14.66H162.64L141,162.64l-20.67,37.07Z" transform="translate(0 0)"></path><path class="cls-3" d="M263.11,199.71q-12.24,0-16.94-8.08a14.78,14.78,0,0,1-2.14-7.54,17.52,17.52,0,0,1,2.46-8.58l43-77.07,55.91-1.21-44.63,80q-1.86,3.31-.64,5.61t4.59,2.25h23.1l-8.19,14.66Z" transform="translate(0 0)"></path><path class="cls-3" d="M353.33,199.71q-12.24,0-16.9-8.08a14.79,14.79,0,0,1-2.14-7.54,17.6,17.6,0,0,1,2.45-8.58l28.12-50.36L420.74,124l-29.69,53.22a7,7,0,0,0-1.1,4.14,4.51,4.51,0,0,0,.46,1.47q1.21,2.25,4.59,2.25h15.45l-8.15,14.66ZM441.84,91.4q0,10.72-12.45,16.94-10.75,5.37-25.24,5.51-21.24.21-31.71-9.9a12.54,12.54,0,0,1-3.91-9.44q0-10.58,12.27-16.83,10.5-5.34,25-5.58,21.36-.36,32.07,9.83A12.48,12.48,0,0,1,441.84,91.4Z" transform="translate(0 0)"></path><path class="cls-3" d="M523.88,199.71q-14.31,0-18.65-6.33a10.45,10.45,0,0,1-1.78-6q0-5,3.81-11.83l15.19-27.2a4.29,4.29,0,0,0-.39-5.26,6.36,6.36,0,0,0-5.09-2.21,13.65,13.65,0,0,0-12.74,7.5l-28.61,51.37H420l41.6-74.56L507.33,124l.07,3.08.14,3.07a77.92,77.92,0,0,1,35.34-8.4q19.33-.11,28.51,9.55a18.13,18.13,0,0,1,5.05,13q0,6.3-4.27,13.94l-10.6,18.95q-1.86,3.31-.64,5.61t4.62,2.25H581l-8.15,14.66Z" transform="translate(0 0)"></path><path class="cls-3" d="M684.67,128.47l16.77-30,55.94-1.21-44.62,80c-1.24,2.21-1.46,4.08-.68,5.61s2.32,2.25,4.63,2.25h15.48L724,199.71H662.5L657,194q-11.07,7.29-30,7.51-17.44.17-28.23-6.16Q585,187.24,585,169.29q0-22,25.13-35.14Q631.54,123,659,123,674.25,123,684.67,128.47ZM657.2,177.61q.18-.29,4.09-7.33l12.28-22q2.25-4,.61-6.86c-1.07-1.87-3-2.79-5.7-2.79q-7.93,0-12,7.4l-4.13,7.37-12.28,22q-2.2,4-.6,6.87t5.7,2.82a13,13,0,0,0,7.15-1.93A15.14,15.14,0,0,0,657.2,177.61Z" transform="translate(0 0)"></path><path class="cls-3" d="M761.3,199.71q-12.24,0-16.94-8.08a14.74,14.74,0,0,1-2.14-7.58,17.32,17.32,0,0,1,2.46-8.54l20.6-36.92H742.11L750.3,124h23.17l14.24-25.53,55.91-1.21L828.71,124h21.81l-8.15,14.62H820.56L799,177.19q-1.85,3.31-.64,5.61t4.59,2.25h28.87l-8.19,14.66Z" transform="translate(0 0)"></path></svg>